<svg id="Layer_1" data-name="Layer 1" xmlns="http://www.w3.org/2000/svg" viewBox="0 0 36.99 36.99"><defs><style>.cls-1{fill:#264d90;}.cls-1,.cls-2{fill-rule:evenodd;}.cls-2{fill:#fff;}</style></defs><title>FB</title><path class="cls-1" d="M20.23,1.18h0A18.49,18.49,0,0,1,38.73,19.67h0A18.49,18.49,0,0,1,20.23,38.17h0A18.49,18.49,0,0,1,1.74,19.67h0A18.49,18.49,0,0,1,20.23,1.18Z" transform="translate(-1.74 -1.18)"/><path class="cls-2" d="M24.59,16.83H21.84V15c.2-1.73,3.05-1.4,3.05-1.4v-.12h0V10.64h0c-.1,0-5.67-1.35-6.78,2.9h0v0a21.55,21.55,0,0,0-.16,3.27H15.56v3.25h2.53v8.84h3.68V20.08h2.82l.32-3.25Z" transform="translate(-1.74 -1.18)"/></svg>