<svg id="Layer_1" data-name="Layer 1" xmlns="http://www.w3.org/2000/svg" viewBox="0 0 36.99 36.99"><defs><style>.cls-1{fill:#d33d27;}.cls-1,.cls-2{fill-rule:evenodd;}.cls-2{fill:#fff;}</style></defs><title>Google</title><path class="cls-1" d="M20.23,1.43h0A18.49,18.49,0,0,1,38.73,19.92h0A18.49,18.49,0,0,1,20.23,38.42h0A18.49,18.49,0,0,1,1.74,19.92h0A18.49,18.49,0,0,1,20.23,1.43Z" transform="translate(-1.74 -1.43)"/><path class="cls-2" d="M11,19.93a5.91,5.91,0,0,1,9.79-4.42c-.48.53-1,1-1.49,1.54a4.13,4.13,0,0,0-3.47-.68,3.71,3.71,0,1,0,2.5,7,3.25,3.25,0,0,0,1.91-2.22c-1.12,0-2.24,0-3.37,0,0-.67,0-1.33,0-2,1.87,0,3.75,0,5.62,0a6.64,6.64,0,0,1-1.19,4.7A5.8,5.8,0,0,1,15,25.48a5.87,5.87,0,0,1-4-5.55ZM26.12,17.4h1.67c0,.56,0,1.12,0,1.68h1.68v1.67H27.8c0,.56,0,1.12,0,1.68H26.12c0-.56,0-1.12,0-1.68H24.43V19.09h1.68C26.11,18.52,26.12,18,26.12,17.4Z" transform="translate(-1.74 -1.43)"/></svg>