<svg id="Layer_1" data-name="Layer 1" xmlns="http://www.w3.org/2000/svg" viewBox="0 0 279.9 189.59"><defs><style>.cls-1,.cls-2{fill:#f1f1f2;}.cls-1{opacity:0.4;}.cls-2{opacity:0.66;}.cls-3,.cls-4{fill:#00a69c;}.cls-4{font-size:11.26px;font-family:OpenSans-Extrabold, Open Sans;font-weight:700;}</style></defs><title>logo3</title><path class="cls-1" d="M280.5,103.93V210.4H10.13A9.52,9.52,0,0,1,.6,200.87V20.81L279.29,103.5Z" transform="translate(-0.6 -20.81)"/><path class="cls-2" d="M279.29,118.57V210.4H10.13A9.52,9.52,0,0,1,.6,200.87V44.43Z" transform="translate(-0.6 -20.81)"/><path class="cls-3" d="M159.57,146.64a13.11,13.11,0,0,0,.06-21.92C158,113,145.88,104.13,131.26,104.13c-15.75,0-28.56,10.41-28.56,23.19,0,6.94,3.76,13.44,10.32,17.87.21,1.07-1.06,6.56-1.55,8.67-.56,2.42-.56,2.42,0,2.61l.56.11.22-.52c.93-2.18,5.59-7.41,6.7-7.77a34.7,34.7,0,0,0,21.19,1.07,21.69,21.69,0,0,0,7.1,1.17,22.14,22.14,0,0,0,5.72-.74h0c.63,0,3.38,1.78,4.87,2.74,1.8,1.17,2.5,1.62,2.92,1.62a.6.6,0,0,0,.43-.19l.32-.44-.23-.41C160.14,151,159.23,147.19,159.57,146.64Zm-28.3,2.67a32.81,32.81,0,0,1-11.94-2.19c-.33-.13-1.11-.45-4.37,3.19-.61.69-1.3,1.53-1.95,2.37,1.57-7,1.44-8,.83-8.42-6.29-4.2-9.91-10.37-9.91-16.93,0-12.11,12.26-22,27.34-22,13.54,0,24.85,7.83,27,18.41a21,21,0,0,0-11-3c-10.07,0-18.26,6.67-18.26,14.88,0,5.54,3.73,10.37,9.25,12.93A33.11,33.11,0,0,1,131.26,149.3Zm27.27,2.19c-3.23-2.08-4.71-2.93-5.55-2.93a1,1,0,0,0-.27,0,20.88,20.88,0,0,1-5.45.71c-9.4,0-17-6.12-17-13.66s7.65-13.66,17-13.66,17,6.12,17,13.66a12.65,12.65,0,0,1-5.47,10c-1.14.85-.16,4.31.71,6.49Z" transform="translate(-0.6 -20.81)"/><path class="cls-3" d="M110.61,134.67c-4.8-4.16-2.42-13-2.32-13.4l1.17.32c0,.08-2.28,8.5,1.94,12.16Z" transform="translate(-0.6 -20.81)"/><text class="cls-4" transform="translate(94.16 155.4)">CHAT WITH US</text></svg>